<svg width="14" height="14" viewBox="0 0 14 14" fill="none" xmlns="http://www.w3.org/2000/svg">
<path d="M7.61872 1.31256C7.27701 0.970848 6.72299 0.970846 6.38128 1.31256L0.565641 7.1282C0.394786 7.29905 0.394786 7.57606 0.565641 7.74692C0.736495 7.91777 1.0135 7.91777 1.18436 7.74692L7 1.93127L12.8156 7.74692C12.9865 7.91777 13.2635 7.91777 13.4344 7.74692C13.6052 7.57606 13.6052 7.29905 13.4344 7.1282L11.375 5.06884V2.18756C11.375 1.94593 11.1791 1.75006 10.9375 1.75006H10.0625C9.82088 1.75006 9.625 1.94593 9.625 2.18756V3.31884L7.61872 1.31256Z" fill="white"/>
<path d="M7 2.88134L12.25 8.13134V11.8126C12.25 12.5374 11.6624 13.1251 10.9375 13.1251H3.0625C2.33763 13.1251 1.75 12.5374 1.75 11.8126V8.13134L7 2.88134Z" fill="white"/>
</svg>
