<svg width="14" height="14" viewBox="0 0 14 14" fill="none" xmlns="http://www.w3.org/2000/svg">
<path d="M7.24272 0.073478C7.09576 -0.0244927 6.90431 -0.0244927 6.75735 0.073478L0.194853 4.44848C0.0344401 4.55542 -0.0370618 4.75476 0.0188062 4.93928C0.0746743 5.1238 0.244742 5.25 0.437534 5.25H2.07816V11.375H1.31253C1.07091 11.375 0.875034 11.5709 0.875034 11.8125C0.875034 12.0541 1.07091 12.25 1.31253 12.25H12.6875C12.9292 12.25 13.125 12.0541 13.125 11.8125C13.125 11.5709 12.9292 11.375 12.6875 11.375H11.9219V5.25H13.5625C13.7553 5.25 13.9254 5.1238 13.9813 4.93928C14.0371 4.75476 13.9656 4.55542 13.8052 4.44848L7.24272 0.073478ZM10.8282 5.25V11.375H9.73441V5.25H10.8282ZM8.64066 5.25V11.375H7.54691V5.25H8.64066ZM6.45316 5.25V11.375H5.35941V5.25H6.45316ZM4.26566 5.25V11.375H3.17191V5.25H4.26566ZM7 3.5C6.51675 3.5 6.125 3.10825 6.125 2.625C6.125 2.14175 6.51675 1.75 7 1.75C7.48325 1.75 7.875 2.14175 7.875 2.625C7.875 3.10825 7.48325 3.5 7 3.5Z" fill="white"/>
<path d="M0.437534 13.125C0.195909 13.125 3.40157e-05 13.3209 3.40157e-05 13.5625C3.40157e-05 13.8041 0.195909 14 0.437534 14H13.5625C13.8042 14 14 13.8041 14 13.5625C14 13.3209 13.8042 13.125 13.5625 13.125H0.437534Z" fill="white"/>
</svg>
