<svg width="14" height="14" viewBox="0 0 14 14" fill="none" xmlns="http://www.w3.org/2000/svg">
<path d="M0 3.5C0 2.5335 0.783502 1.75 1.75 1.75H12.25C13.2165 1.75 14 2.5335 14 3.5V4.375H0V3.5Z" fill="white"/>
<path d="M0 6.125V10.5C0 11.4665 0.783502 12.25 1.75 12.25H12.25C13.2165 12.25 14 11.4665 14 10.5V6.125H0ZM2.625 7.875H3.5C3.98325 7.875 4.375 8.26675 4.375 8.75V9.625C4.375 10.1082 3.98325 10.5 3.5 10.5H2.625C2.14175 10.5 1.75 10.1082 1.75 9.625V8.75C1.75 8.26675 2.14175 7.875 2.625 7.875Z" fill="white"/>
</svg>
