<svg width="14" height="9" viewBox="0 0 14 9" fill="none" xmlns="http://www.w3.org/2000/svg">
<path d="M7 6.3C7.9665 6.3 8.75 5.49411 8.75 4.5C8.75 3.50589 7.9665 2.7 7 2.7C6.0335 2.7 5.25 3.50589 5.25 4.5C5.25 5.49411 6.0335 6.3 7 6.3Z" fill="white"/>
<path d="M0 0.9C0 0.402944 0.391751 0 0.875 0H13.125C13.6082 0 14 0.402944 14 0.9V8.1C14 8.59706 13.6082 9 13.125 9H0.875C0.391751 9 0 8.59706 0 8.1V0.9ZM2.625 0.9C2.625 1.89411 1.8415 2.7 0.875 2.7V6.3C1.8415 6.3 2.625 7.10589 2.625 8.1H11.375C11.375 7.10589 12.1585 6.3 13.125 6.3V2.7C12.1585 2.7 11.375 1.89411 11.375 0.9H2.625Z" fill="white"/>
</svg>
