<svg width="14" height="14" viewBox="0 0 14 14" fill="none" xmlns="http://www.w3.org/2000/svg">
<path d="M7 14C7.9665 14 8.75 13.2165 8.75 12.25H5.25C5.25 13.2165 6.0335 14 7 14Z" fill="white"/>
<path d="M7.87076 0.961654C7.87357 0.933149 7.875 0.904242 7.875 0.875C7.875 0.391751 7.48325 0 7 0C6.51675 0 6.125 0.391751 6.125 0.875C6.125 0.904245 6.12643 0.933154 6.12924 0.961662C4.13018 1.36539 2.62502 3.13192 2.62502 5.25C2.62502 6.2104 2.1875 10.5 0.875 11.375H13.125C11.8125 10.5 11.375 6.2104 11.375 5.25C11.375 3.13191 9.86984 1.36537 7.87076 0.961654Z" fill="white"/>
</svg>
